<?xml version="1.0" encoding="utf-8"?>
<!-- Generator: Adobe Illustrator 15.0.0, SVG Export Plug-In . SVG Version: 6.00 Build 0)  -->
<!DOCTYPE svg PUBLIC "-//W3C//DTD SVG 1.1//EN" "http://www.w3.org/Graphics/SVG/1.1/DTD/svg11.dtd">
<svg version="1.1" id="Capa_1" xmlns="http://www.w3.org/2000/svg" xmlns:xlink="http://www.w3.org/1999/xlink" x="0px" y="0px"
	 width="512px" height="450px" viewBox="0 4 512 450" enable-background="new 0 4 512 450" xml:space="preserve">
<g>
	<path fill="#007BFF" d="M497,154h-52.791L328.713,9.63c-5.174-6.467-14.613-7.518-21.083-2.342
		c-6.469,5.175-7.518,14.614-2.342,21.083L405.791,154H106.209L206.713,28.371c5.175-6.469,4.126-15.909-2.342-21.083
		c-6.47-5.176-15.909-4.126-21.083,2.342L67.791,154H15c-8.284,0-15,6.716-15,15v30c0,8.284,6.716,15,15,15h482
		c8.284,0,15-6.716,15-15v-30C512,160.716,505.284,154,497,154L497,154z"/>
	<path fill="#007BFF" d="M90.577,443.121C92.417,449.561,98.303,454,105,454h302c6.697,0,12.583-4.439,14.423-10.879L478.314,244
		H33.686L90.577,443.121z M324.704,376.535l15-90c1.362-8.172,9.09-13.696,17.262-12.33c8.172,1.361,13.692,9.09,12.33,17.262
		l-15,90c-1.223,7.338-7.578,12.537-14.778,12.537c-0.817,0-1.647-0.066-2.482-0.207
		C328.862,392.436,323.342,384.706,324.704,376.535z M241,289c0-8.284,6.716-15,15-15s15,6.716,15,15v90c0,8.284-6.716,15-15,15
		s-15-6.716-15-15V289z M156.034,274.205c8.173-1.361,15.9,4.158,17.262,12.33l15,90c1.362,8.171-4.158,15.9-12.33,17.262
		c-0.834,0.139-1.665,0.207-2.484,0.207c-7.201,0-13.555-5.199-14.778-12.537l-15-90
		C142.342,283.295,147.862,275.566,156.034,274.205z"/>
</g>
</svg>
